<?xml version="1.0" encoding="utf-8"?>
<!-- Generator: Adobe Illustrator 19.2.1, SVG Export Plug-In . SVG Version: 6.00 Build 0)  -->
<svg version="1.1" id="Layer_1" xmlns="http://www.w3.org/2000/svg" xmlns:xlink="http://www.w3.org/1999/xlink" x="0px" y="0px"
	 viewBox="0 0 100 100" style="enable-background:new 0 0 100 100;" xml:space="preserve">
<style type="text/css">
	.st0{fill:#FFFFFF;stroke:#000000;stroke-miterlimit:10;stroke-dasharray:15;}
	.st1{fill-rule:evenodd;clip-rule:evenodd;fill:#FFFFFF;}
</style>
<circle class="st0" cx="50" cy="50" r="47.7">
	<animateTransform attributeName="transform"
		attributeType="XML"
		type="rotate"
		from="0 50 50"
		to="360 50 50"
		dur="5s"
		repeatCount="indefinite"/>
</circle>

<circle cx="50" cy="50" r="37.3"/>
<path class="st1" d="M53.5,53.4c0.9-0.1,4-0.4,4.9,0.3c0.1,0.1,0.3,0.1,0.3,0.3l0.1,0.1c0,0.1-0.1,0.1-0.1,0.2l-0.1,0.1
	c-0.1,0.1-0.1,0.3-0.1,0.4c0,0.6-3.8,0.7-4.3,0.7c2.6,8.4,5.3,13.7,13.9,19.8c-12-2.5-15.4-10.6-18-19.4L44.7,56
	c-1.2,3.8-4.3,8.7-4.1,12.8c0,0,0-0.1,0-0.1c-0.1-0.1-0.1-0.3-0.2-0.4c0,0,0-0.1,0-0.1c0,0,0,0,0,0c0,0,0-0.1,0-0.1c0,0,0,0,0,0
	c0,0,0-0.1,0-0.1l0,0c0,0,0-0.1,0-0.1c0,0,0,0,0,0c0,0,0-0.1,0-0.1c0,0,0,0,0,0c0,0,0-0.1,0-0.1c0,0,0,0,0,0c0,0,0-0.1,0-0.1
	c0,0,0,0,0,0c0,0,0-0.1,0-0.1c0,0,0,0,0,0c0,0,0-0.1,0-0.1c0,0,0-0.1,0-0.1c0,0,0,0,0-0.1c-0.1-0.6,0-1.1,0-1.7
	c0.6-4.1,2.1-5.4,3-9.5c-2.7,0-3-0.1-6.4,0.1c2.1-1,4.5-1.4,6.8-1.7c2.4-9.3,1.3-14.9,0.4-24c-0.4-4.5-0.5-7.5-0.6-8.5
	c-0.1-2.2,1.4-0.6,1.8-0.2c0.7,1,1.8,5.4,2.4,8.7C49.1,37.3,51.2,46.8,53.5,53.4z M45.2,54.2c0.7-3.8,1-6.5,1.3-7.6
	c0.5-2,3,6.5,3.1,7.2L45.2,54.2z">
	<animateTransform id="loading"
	attributeName="transform"
	attributeType="XML"
	type="translate"
	dur="1s"
	values="0,5;0,-5;0,5"
	repeatCount="indefinite"/>	
</path>
</svg>
